<svg width="96" height="96" fill="none" xmlns="http://www.w3.org/2000/svg"><path d="M22.457 59.78c-3.889 3.89-5.173 19.37-5.173 19.37s15.443-1.397 19.332-5.286c3.89-3.889 3.89-10.232-.075-14.121-3.851-3.927-10.157-3.89-14.084.038z" fill="#F86734"/><path d="M55.949 19.266l21.484-3.058a2.403 2.403 0 012.719 2.718L77.13 40.448 55.949 19.266z" fill="#063042"/><path d="M51.229 28.894l-13.216.076c-.528 0-1.019.189-1.397.566L26.535 39.618c-1.246 1.246-.378 3.398 1.435 3.398h9.213l14.084-14.084-.038-.038zM67.465 45.13l-.076 13.216a1.94 1.94 0 01-.566 1.397L56.742 69.824c-1.246 1.246-3.399.378-3.399-1.435l.038-9.175L67.465 45.13z" fill="#3DDC84"/><path d="M39.94 74.015L22.381 56.458a2.53 2.53 0 010-3.625l33.567-33.567L77.13 40.448 43.6 73.978c-1.019 1.02-2.68 1.02-3.662.037z" fill="#063042"/></svg>
